<svg width="33" height="32" viewBox="0 0 33 32" fill="none" xmlns="http://www.w3.org/2000/svg">
<path d="M23.1975 14H9.19751C7.87143 14 6.59966 14.5268 5.66198 15.4645C4.72429 16.4021 4.19751 17.6739 4.19751 19V25C4.19751 26.3261 4.72429 27.5979 5.66198 28.5355C6.59966 29.4732 7.87143 30 9.19751 30H23.1975C24.5236 30 25.7954 29.4732 26.733 28.5355C27.6707 27.5979 28.1975 26.3261 28.1975 25V19C28.1975 17.6739 27.6707 16.4021 26.733 15.4645C25.7954 14.5268 24.5236 14 23.1975 14ZM16.1975 26C15.4064 26 14.633 25.7654 13.9752 25.3259C13.3174 24.8864 12.8047 24.2616 12.502 23.5307C12.1992 22.7998 12.12 21.9956 12.2744 21.2196C12.4287 20.4437 12.8097 19.731 13.3691 19.1716C13.9285 18.6122 14.6412 18.2312 15.4171 18.0769C16.1931 17.9225 16.9973 18.0017 17.7282 18.3045C18.4591 18.6072 19.0839 19.1199 19.5234 19.7777C19.9629 20.4355 20.1975 21.2089 20.1975 22C20.1975 23.0609 19.7761 24.0783 19.0259 24.8284C18.2758 25.5786 17.2584 26 16.1975 26Z" fill="#FD3C4A"/>
<path d="M16.1975 24C17.3021 24 18.1975 23.1046 18.1975 22C18.1975 20.8954 17.3021 20 16.1975 20C15.0929 20 14.1975 20.8954 14.1975 22C14.1975 23.1046 15.0929 24 16.1975 24Z" fill="#FD3C4A"/>
<path d="M16.9076 2.29C16.8146 2.19627 16.704 2.12188 16.5822 2.07111C16.4603 2.02034 16.3296 1.9942 16.1976 1.9942C16.0656 1.9942 15.9349 2.02034 15.813 2.07111C15.6912 2.12188 15.5806 2.19627 15.4876 2.29L11.2476 6.54C11.054 6.72698 10.9426 6.98321 10.9379 7.25232C10.9332 7.52144 11.0356 7.78139 11.2226 7.975C11.4096 8.16861 11.6658 8.28001 11.9349 8.2847C12.204 8.28939 12.464 8.18698 12.6576 8L15.1976 5.41V11C15.1976 11.2652 15.303 11.5196 15.4905 11.7071C15.678 11.8946 15.9324 12 16.1976 12C16.4628 12 16.7172 11.8946 16.9047 11.7071C17.0922 11.5196 17.1976 11.2652 17.1976 11V5.41L19.7376 8C19.9239 8.18474 20.1753 8.2889 20.4376 8.29C20.5775 8.29761 20.7175 8.27573 20.8484 8.22577C20.9793 8.17581 21.0983 8.09889 21.1976 8C21.3838 7.81264 21.4884 7.55919 21.4884 7.295C21.4884 7.03081 21.3838 6.77736 21.1976 6.59L16.9076 2.29Z" fill="#FD3C4A"/>
</svg>
