<svg width="32" height="32" viewBox="0 0 32 32" fill="none" xmlns="http://www.w3.org/2000/svg">
<path d="M16 8.5C13.7892 8.50203 11.6219 9.11475 9.73733 10.2706C7.85273 11.4264 6.32406 13.0804 5.31999 15.05C5.16748 15.3434 5.08786 15.6693 5.08786 16C5.08786 16.3307 5.16748 16.6566 5.31999 16.95C6.32701 18.9156 7.85695 20.5652 9.74133 21.7171C11.6257 22.869 13.7914 23.4785 16 23.4785C18.2086 23.4785 20.3743 22.869 22.2587 21.7171C24.143 20.5652 25.673 18.9156 26.68 16.95C26.8325 16.6566 26.9121 16.3307 26.9121 16C26.9121 15.6693 26.8325 15.3434 26.68 15.05C25.6759 13.0804 24.1473 11.4264 22.2627 10.2706C20.3781 9.11475 18.2108 8.50203 16 8.5V8.5Z" stroke="#91919F" stroke-width="2" stroke-linecap="round" stroke-linejoin="round"/>
<path d="M16 19.5C17.933 19.5 19.5 17.933 19.5 16C19.5 14.067 17.933 12.5 16 12.5C14.067 12.5 12.5 14.067 12.5 16C12.5 17.933 14.067 19.5 16 19.5Z" stroke="#91919F" stroke-width="2" stroke-linecap="round" stroke-linejoin="round"/>
</svg>
